<mxfile host="app.diagrams.net" modified="2021-03-17T08:05:06.729Z" agent="5.0 (X11; Linux x86_64) AppleWebKit/537.36 (KHTML, like Gecko) Chrome/88.0.4324.182 Safari/537.36" etag="A9E0NMCEyjXOFGgm9NTa" version="14.4.8" type="github">
  <diagram id="BzeWuSWtje4ORMCNxh40" name="第 1 页">
    <mxGraphModel dx="1808" dy="1747" grid="1" gridSize="10" guides="1" tooltips="1" connect="1" arrows="1" fold="1" page="1" pageScale="1" pageWidth="827" pageHeight="1169" math="0" shadow="0">
      <root>
        <mxCell id="0" />
        <mxCell id="1" parent="0" />
        <mxCell id="fAShZ8duKGNs7Qphul_N-12" value="" style="rounded=1;whiteSpace=wrap;html=1;strokeColor=#FF3399;strokeWidth=4;" parent="1" vertex="1">
          <mxGeometry x="840" y="-250" width="540" height="530" as="geometry" />
        </mxCell>
        <mxCell id="qBQlF7NBc0J-nLH2HXVz-72" value="" style="shape=actor;whiteSpace=wrap;html=1;rounded=1;labelBackgroundColor=none;strokeColor=#FF3399;strokeWidth=4;fillColor=#FF3399;fontColor=#FF3399;" vertex="1" parent="1">
          <mxGeometry x="910" y="35" width="40" height="60" as="geometry" />
        </mxCell>
        <mxCell id="qBQlF7NBc0J-nLH2HXVz-55" value="" style="rounded=1;whiteSpace=wrap;html=1;strokeWidth=4;strokeColor=#00CC00;" vertex="1" parent="1">
          <mxGeometry x="80" y="-140" width="590" height="360" as="geometry" />
        </mxCell>
        <mxCell id="qBQlF7NBc0J-nLH2HXVz-9" style="edgeStyle=orthogonalEdgeStyle;curved=1;rounded=0;orthogonalLoop=1;jettySize=auto;html=1;exitX=0;exitY=1;exitDx=0;exitDy=0;entryX=1;entryY=0.5;entryDx=0;entryDy=0;entryPerimeter=0;fillColor=#f8cecc;strokeWidth=2;strokeColor=#FF3399;" edge="1" parent="1" source="fAShZ8duKGNs7Qphul_N-1" target="fAShZ8duKGNs7Qphul_N-3">
          <mxGeometry relative="1" as="geometry">
            <Array as="points">
              <mxPoint x="459" y="-110" />
              <mxPoint x="459" y="35" />
            </Array>
          </mxGeometry>
        </mxCell>
        <mxCell id="qBQlF7NBc0J-nLH2HXVz-64" value="3. Route Message" style="edgeLabel;html=1;align=center;verticalAlign=middle;resizable=0;points=[];fontColor=#FF3399;labelBackgroundColor=none;fontStyle=1" vertex="1" connectable="0" parent="qBQlF7NBc0J-nLH2HXVz-9">
          <mxGeometry x="0.1247" y="-2" relative="1" as="geometry">
            <mxPoint x="-17" y="-27.33" as="offset" />
          </mxGeometry>
        </mxCell>
        <mxCell id="fAShZ8duKGNs7Qphul_N-1" value="&lt;b&gt;kusama&lt;/b&gt;" style="shape=process;whiteSpace=wrap;html=1;backgroundOutline=1;size=0.2413793103448276;rotation=90;" parent="1" vertex="1">
          <mxGeometry x="420" y="-25" width="290" height="120" as="geometry" />
        </mxCell>
        <mxCell id="qBQlF7NBc0J-nLH2HXVz-50" style="edgeStyle=orthogonalEdgeStyle;curved=1;rounded=0;orthogonalLoop=1;jettySize=auto;html=1;exitX=0;exitY=0;exitDx=0;exitDy=0;entryX=0;entryY=0.5;entryDx=0;entryDy=0;entryPerimeter=0;fillColor=#e1d5e7;strokeColor=#9673a6;strokeWidth=2;" edge="1" parent="1" source="fAShZ8duKGNs7Qphul_N-2" target="fAShZ8duKGNs7Qphul_N-3">
          <mxGeometry relative="1" as="geometry">
            <Array as="points">
              <mxPoint x="308" y="-110" />
              <mxPoint x="308" y="35" />
            </Array>
          </mxGeometry>
        </mxCell>
        <mxCell id="fAShZ8duKGNs7Qphul_N-2" value="&lt;b&gt;alaya&lt;/b&gt;" style="shape=process;whiteSpace=wrap;html=1;backgroundOutline=1;size=0.2413793103448276;rotation=90;" parent="1" vertex="1">
          <mxGeometry x="50" y="-25" width="290" height="120" as="geometry" />
        </mxCell>
        <mxCell id="qBQlF7NBc0J-nLH2HXVz-10" style="edgeStyle=orthogonalEdgeStyle;curved=1;rounded=0;orthogonalLoop=1;jettySize=auto;html=1;exitX=0;exitY=0.5;exitDx=0;exitDy=0;exitPerimeter=0;entryX=1;entryY=0;entryDx=0;entryDy=0;fillColor=#f8cecc;strokeWidth=2;strokeColor=#FF3399;" edge="1" parent="1" source="fAShZ8duKGNs7Qphul_N-3" target="fAShZ8duKGNs7Qphul_N-2">
          <mxGeometry relative="1" as="geometry">
            <Array as="points">
              <mxPoint x="304" y="35" />
              <mxPoint x="304" y="180" />
            </Array>
          </mxGeometry>
        </mxCell>
        <mxCell id="qBQlF7NBc0J-nLH2HXVz-51" style="edgeStyle=orthogonalEdgeStyle;curved=1;rounded=0;orthogonalLoop=1;jettySize=auto;html=1;exitX=1;exitY=0.5;exitDx=0;exitDy=0;exitPerimeter=0;entryX=1;entryY=1;entryDx=0;entryDy=0;fillColor=#e1d5e7;strokeColor=#9673a6;strokeWidth=2;" edge="1" parent="1" source="fAShZ8duKGNs7Qphul_N-3" target="fAShZ8duKGNs7Qphul_N-1">
          <mxGeometry relative="1" as="geometry">
            <Array as="points">
              <mxPoint x="459" y="35" />
              <mxPoint x="459" y="180" />
            </Array>
          </mxGeometry>
        </mxCell>
        <mxCell id="fAShZ8duKGNs7Qphul_N-3" value="router" style="shape=cylinder3;whiteSpace=wrap;html=1;boundedLbl=1;backgroundOutline=1;size=15;" parent="1" vertex="1">
          <mxGeometry x="353.5" y="-5" width="60" height="80" as="geometry" />
        </mxCell>
        <mxCell id="fAShZ8duKGNs7Qphul_N-4" value="listener" style="text;html=1;strokeColor=none;fillColor=none;align=center;verticalAlign=middle;whiteSpace=wrap;rounded=0;" parent="1" vertex="1">
          <mxGeometry x="175" y="-90" width="40" height="20" as="geometry" />
        </mxCell>
        <mxCell id="fAShZ8duKGNs7Qphul_N-7" value="listener" style="text;html=1;strokeColor=none;fillColor=none;align=center;verticalAlign=middle;whiteSpace=wrap;rounded=0;" parent="1" vertex="1">
          <mxGeometry x="545" y="-90" width="40" height="20" as="geometry" />
        </mxCell>
        <mxCell id="fAShZ8duKGNs7Qphul_N-8" value="writer" style="text;html=1;strokeColor=none;fillColor=none;align=center;verticalAlign=middle;whiteSpace=wrap;rounded=0;" parent="1" vertex="1">
          <mxGeometry x="175" y="140" width="40" height="20" as="geometry" />
        </mxCell>
        <mxCell id="fAShZ8duKGNs7Qphul_N-10" value="writer" style="text;html=1;strokeColor=none;fillColor=none;align=center;verticalAlign=middle;whiteSpace=wrap;rounded=0;" parent="1" vertex="1">
          <mxGeometry x="545" y="140" width="40" height="20" as="geometry" />
        </mxCell>
        <mxCell id="fAShZ8duKGNs7Qphul_N-14" value="" style="rhombus;whiteSpace=wrap;html=1;strokeWidth=2;fillWeight=-1;hachureGap=8;fillStyle=cross-hatch;fillColor=#f8cecc;sketch=1;strokeColor=#b85450;" parent="1" vertex="1">
          <mxGeometry x="990" y="-10" width="120" height="60" as="geometry" />
        </mxCell>
        <mxCell id="qBQlF7NBc0J-nLH2HXVz-4" style="edgeStyle=orthogonalEdgeStyle;curved=1;rounded=0;orthogonalLoop=1;jettySize=auto;html=1;exitX=0.5;exitY=1;exitDx=0;exitDy=0;entryX=0;entryY=0;entryDx=0;entryDy=0;fillColor=#f8cecc;strokeColor=#b85450;" edge="1" parent="1" source="qBQlF7NBc0J-nLH2HXVz-74" target="fAShZ8duKGNs7Qphul_N-14">
          <mxGeometry relative="1" as="geometry">
            <mxPoint x="1042.5" y="-114" as="sourcePoint" />
            <Array as="points">
              <mxPoint x="1050" y="-70" />
              <mxPoint x="1020" y="-70" />
            </Array>
          </mxGeometry>
        </mxCell>
        <mxCell id="qBQlF7NBc0J-nLH2HXVz-2" style="edgeStyle=orthogonalEdgeStyle;curved=1;rounded=0;orthogonalLoop=1;jettySize=auto;html=1;exitX=0.75;exitY=0.1;exitDx=0;exitDy=0;exitPerimeter=0;entryX=0.158;entryY=0.695;entryDx=0;entryDy=0;entryPerimeter=0;fillColor=#f8cecc;strokeColor=#FF3399;strokeWidth=2;" edge="1" parent="1" target="fAShZ8duKGNs7Qphul_N-14">
          <mxGeometry relative="1" as="geometry">
            <mxPoint x="942.5" y="61" as="sourcePoint" />
            <Array as="points">
              <mxPoint x="1009" y="61" />
            </Array>
          </mxGeometry>
        </mxCell>
        <mxCell id="qBQlF7NBc0J-nLH2HXVz-5" style="edgeStyle=orthogonalEdgeStyle;curved=1;rounded=0;orthogonalLoop=1;jettySize=auto;html=1;exitX=0.25;exitY=0.1;exitDx=0;exitDy=0;exitPerimeter=0;entryX=1;entryY=1;entryDx=0;entryDy=0;fillColor=#f8cecc;strokeColor=#b85450;" edge="1" parent="1" target="fAShZ8duKGNs7Qphul_N-14">
          <mxGeometry relative="1" as="geometry">
            <mxPoint x="1157.5" y="61" as="sourcePoint" />
            <Array as="points">
              <mxPoint x="1080" y="61" />
            </Array>
          </mxGeometry>
        </mxCell>
        <mxCell id="fAShZ8duKGNs7Qphul_N-21" value="" style="endArrow=none;dashed=1;html=1;dashPattern=1 3;strokeWidth=2;exitX=0.5;exitY=0;exitDx=0;exitDy=0;entryX=0;entryY=0.75;entryDx=0;entryDy=0;" parent="1" source="qBQlF7NBc0J-nLH2HXVz-72" target="qBQlF7NBc0J-nLH2HXVz-74" edge="1">
          <mxGeometry width="50" height="50" relative="1" as="geometry">
            <mxPoint x="935" y="55" as="sourcePoint" />
            <mxPoint x="1035" y="-100" as="targetPoint" />
          </mxGeometry>
        </mxCell>
        <mxCell id="fAShZ8duKGNs7Qphul_N-22" value="" style="endArrow=none;dashed=1;html=1;dashPattern=1 3;strokeWidth=2;exitX=1;exitY=0.75;exitDx=0;exitDy=0;entryX=0;entryY=0.75;entryDx=0;entryDy=0;" parent="1" source="qBQlF7NBc0J-nLH2HXVz-72" target="qBQlF7NBc0J-nLH2HXVz-73" edge="1">
          <mxGeometry width="50" height="50" relative="1" as="geometry">
            <mxPoint x="950" y="75" as="sourcePoint" />
            <mxPoint x="1150" y="75" as="targetPoint" />
          </mxGeometry>
        </mxCell>
        <mxCell id="fAShZ8duKGNs7Qphul_N-23" value="" style="endArrow=none;dashed=1;html=1;dashPattern=1 3;strokeWidth=2;exitX=1;exitY=0.75;exitDx=0;exitDy=0;entryX=0.5;entryY=0;entryDx=0;entryDy=0;" parent="1" source="qBQlF7NBc0J-nLH2HXVz-74" target="qBQlF7NBc0J-nLH2HXVz-73" edge="1">
          <mxGeometry width="50" height="50" relative="1" as="geometry">
            <mxPoint x="1065" y="-100" as="sourcePoint" />
            <mxPoint x="1165" y="55" as="targetPoint" />
          </mxGeometry>
        </mxCell>
        <mxCell id="fAShZ8duKGNs7Qphul_N-26" value="" style="curved=1;endArrow=classic;html=1;exitX=0;exitY=0.3333333333333333;exitDx=0;exitDy=0;exitPerimeter=0;entryX=1;entryY=0;entryDx=0;entryDy=0;edgeStyle=orthogonalEdgeStyle;fillColor=#f8cecc;strokeColor=#b85450;strokeWidth=2;" parent="1" target="fAShZ8duKGNs7Qphul_N-14" edge="1">
          <mxGeometry width="50" height="50" relative="1" as="geometry">
            <mxPoint x="1249.9999999999995" y="-130" as="sourcePoint" />
            <mxPoint x="1150" y="-40" as="targetPoint" />
          </mxGeometry>
        </mxCell>
        <mxCell id="fAShZ8duKGNs7Qphul_N-27" value="1. System.Batch" style="edgeLabel;html=1;align=center;verticalAlign=middle;resizable=0;points=[];fontStyle=1;fontColor=#FF3399;" parent="fAShZ8duKGNs7Qphul_N-26" vertex="1" connectable="0">
          <mxGeometry x="-0.0495" y="3" relative="1" as="geometry">
            <mxPoint x="38.82" y="6.999999999999999" as="offset" />
          </mxGeometry>
        </mxCell>
        <mxCell id="fAShZ8duKGNs7Qphul_N-30" value="" style="curved=1;endArrow=classic;html=1;exitX=0;exitY=0.3333333333333333;exitDx=0;exitDy=0;exitPerimeter=0;entryX=1;entryY=0.5;entryDx=0;entryDy=0;edgeStyle=orthogonalEdgeStyle;strokeWidth=2;fillColor=#f8cecc;strokeColor=#b85450;" parent="1" target="fAShZ8duKGNs7Qphul_N-14" edge="1">
          <mxGeometry width="50" height="50" relative="1" as="geometry">
            <mxPoint x="1249.9999999999995" y="-29.999999999999773" as="sourcePoint" />
            <mxPoint x="1090" y="15" as="targetPoint" />
            <Array as="points">
              <mxPoint x="1110" y="-30" />
            </Array>
          </mxGeometry>
        </mxCell>
        <mxCell id="fAShZ8duKGNs7Qphul_N-31" value="1. System.Batch" style="edgeLabel;html=1;align=center;verticalAlign=middle;resizable=0;points=[];fontStyle=1;fontColor=#FF3399;" parent="fAShZ8duKGNs7Qphul_N-30" vertex="1" connectable="0">
          <mxGeometry x="-0.0495" y="3" relative="1" as="geometry">
            <mxPoint x="38.82" y="-3.000000000000001" as="offset" />
          </mxGeometry>
        </mxCell>
        <mxCell id="qBQlF7NBc0J-nLH2HXVz-28" value="" style="rounded=1;whiteSpace=wrap;html=1;strokeColor=#3399FF;strokeWidth=4;" vertex="1" parent="1">
          <mxGeometry x="-580" y="-250" width="540" height="535" as="geometry" />
        </mxCell>
        <mxCell id="qBQlF7NBc0J-nLH2HXVz-29" value="" style="rhombus;whiteSpace=wrap;html=1;strokeWidth=2;fillWeight=-1;hachureGap=8;fillStyle=cross-hatch;fillColor=#e1d5e7;sketch=1;strokeColor=#9673a6;" vertex="1" parent="1">
          <mxGeometry x="-430" y="10" width="120" height="60" as="geometry" />
        </mxCell>
        <mxCell id="qBQlF7NBc0J-nLH2HXVz-34" style="edgeStyle=orthogonalEdgeStyle;curved=1;rounded=0;orthogonalLoop=1;jettySize=auto;html=1;exitX=0.16;exitY=0.55;exitDx=0;exitDy=0;exitPerimeter=0;entryX=1;entryY=1;entryDx=0;entryDy=0;fillColor=#e1d5e7;strokeColor=#9673a6;strokeWidth=2;" edge="1" parent="1" source="qBQlF7NBc0J-nLH2HXVz-45" target="qBQlF7NBc0J-nLH2HXVz-29">
          <mxGeometry relative="1" as="geometry">
            <Array as="points">
              <mxPoint x="-211" y="55" />
            </Array>
            <mxPoint x="-272.5" y="61" as="sourcePoint" />
          </mxGeometry>
        </mxCell>
        <mxCell id="qBQlF7NBc0J-nLH2HXVz-39" value="Eve" style="shape=umlActor;verticalLabelPosition=bottom;verticalAlign=top;html=1;outlineConnect=0;fillColor=#f8cecc;strokeColor=#b85450;" vertex="1" parent="1">
          <mxGeometry x="-280" y="-185" width="30" height="60" as="geometry" />
        </mxCell>
        <mxCell id="qBQlF7NBc0J-nLH2HXVz-40" value="Dave" style="shape=umlActor;verticalLabelPosition=bottom;verticalAlign=top;html=1;outlineConnect=0;fillColor=#f8cecc;strokeColor=#b85450;" vertex="1" parent="1">
          <mxGeometry x="-510" y="-185" width="30" height="60" as="geometry" />
        </mxCell>
        <mxCell id="qBQlF7NBc0J-nLH2HXVz-41" value="" style="curved=1;endArrow=classic;html=1;entryX=0;entryY=0;entryDx=0;entryDy=0;edgeStyle=orthogonalEdgeStyle;exitX=1;exitY=0.3333333333333333;exitDx=0;exitDy=0;exitPerimeter=0;fillColor=#e1d5e7;strokeColor=#9673a6;strokeWidth=2;" edge="1" parent="1" source="qBQlF7NBc0J-nLH2HXVz-40" target="qBQlF7NBc0J-nLH2HXVz-29">
          <mxGeometry width="50" height="50" relative="1" as="geometry">
            <mxPoint x="-330" y="10" as="sourcePoint" />
            <mxPoint x="-280" y="-40" as="targetPoint" />
            <Array as="points" />
          </mxGeometry>
        </mxCell>
        <mxCell id="qBQlF7NBc0J-nLH2HXVz-42" value="Deposit" style="edgeLabel;html=1;align=center;verticalAlign=middle;resizable=0;points=[];fontStyle=1;fontColor=#FF3399;" vertex="1" connectable="0" parent="qBQlF7NBc0J-nLH2HXVz-41">
          <mxGeometry x="-0.0495" y="3" relative="1" as="geometry">
            <mxPoint x="-42.99999999999999" y="22" as="offset" />
          </mxGeometry>
        </mxCell>
        <mxCell id="qBQlF7NBc0J-nLH2HXVz-43" value="" style="curved=1;endArrow=classic;html=1;exitX=0;exitY=0.3333333333333333;exitDx=0;exitDy=0;exitPerimeter=0;entryX=1;entryY=0;entryDx=0;entryDy=0;edgeStyle=orthogonalEdgeStyle;strokeWidth=2;fillColor=#e1d5e7;strokeColor=#9673a6;" edge="1" parent="1" source="qBQlF7NBc0J-nLH2HXVz-39" target="qBQlF7NBc0J-nLH2HXVz-29">
          <mxGeometry width="50" height="50" relative="1" as="geometry">
            <mxPoint x="30" y="-130" as="sourcePoint" />
            <mxPoint x="-340" y="15" as="targetPoint" />
          </mxGeometry>
        </mxCell>
        <mxCell id="qBQlF7NBc0J-nLH2HXVz-44" value="Deposit" style="edgeLabel;html=1;align=center;verticalAlign=middle;resizable=0;points=[];fontStyle=1;fontColor=#FF3399;" vertex="1" connectable="0" parent="qBQlF7NBc0J-nLH2HXVz-43">
          <mxGeometry x="-0.0495" y="3" relative="1" as="geometry">
            <mxPoint x="37" y="15.83" as="offset" />
          </mxGeometry>
        </mxCell>
        <mxCell id="qBQlF7NBc0J-nLH2HXVz-49" style="edgeStyle=orthogonalEdgeStyle;curved=1;rounded=0;orthogonalLoop=1;jettySize=auto;html=1;exitX=0.875;exitY=0.5;exitDx=0;exitDy=0;exitPerimeter=0;entryX=0;entryY=1;entryDx=0;entryDy=0;fillColor=#e1d5e7;strokeColor=#9673a6;strokeWidth=2;sketch=0;shadow=0;" edge="1" parent="1" source="qBQlF7NBc0J-nLH2HXVz-45" target="fAShZ8duKGNs7Qphul_N-2">
          <mxGeometry relative="1" as="geometry">
            <Array as="points">
              <mxPoint x="-82" y="30" />
              <mxPoint x="135" y="30" />
            </Array>
          </mxGeometry>
        </mxCell>
        <mxCell id="qBQlF7NBc0J-nLH2HXVz-45" value="Contract" style="ellipse;shape=cloud;whiteSpace=wrap;html=1;rounded=1;fillColor=#e1d5e7;strokeColor=#9673a6;" vertex="1" parent="1">
          <mxGeometry x="-240" y="-25" width="180" height="130" as="geometry" />
        </mxCell>
        <mxCell id="qBQlF7NBc0J-nLH2HXVz-46" style="edgeStyle=orthogonalEdgeStyle;curved=1;rounded=0;orthogonalLoop=1;jettySize=auto;html=1;exitX=1;exitY=1;exitDx=0;exitDy=0;entryX=0.875;entryY=0.5;entryDx=0;entryDy=0;entryPerimeter=0;fillColor=#f8cecc;strokeWidth=2;strokeColor=#FF3399;" edge="1" parent="1" source="fAShZ8duKGNs7Qphul_N-2" target="qBQlF7NBc0J-nLH2HXVz-45">
          <mxGeometry relative="1" as="geometry">
            <Array as="points">
              <mxPoint x="135" y="40" />
            </Array>
          </mxGeometry>
        </mxCell>
        <mxCell id="qBQlF7NBc0J-nLH2HXVz-63" value="4. create Proposal" style="edgeLabel;html=1;align=center;verticalAlign=middle;resizable=0;points=[];fontStyle=1;fontColor=#FF3399;" vertex="1" connectable="0" parent="qBQlF7NBc0J-nLH2HXVz-46">
          <mxGeometry x="0.2979" y="15" relative="1" as="geometry">
            <mxPoint as="offset" />
          </mxGeometry>
        </mxCell>
        <mxCell id="qBQlF7NBc0J-nLH2HXVz-47" style="edgeStyle=orthogonalEdgeStyle;curved=1;rounded=0;orthogonalLoop=1;jettySize=auto;html=1;exitX=0;exitY=0.3333333333333333;exitDx=0;exitDy=0;fillColor=#f8cecc;strokeWidth=2;exitPerimeter=0;entryX=0;entryY=0;entryDx=0;entryDy=0;strokeColor=#FF3399;" edge="1" parent="1" target="fAShZ8duKGNs7Qphul_N-1">
          <mxGeometry relative="1" as="geometry">
            <mxPoint x="920" y="75" as="sourcePoint" />
            <mxPoint x="710" y="-140" as="targetPoint" />
            <Array as="points">
              <mxPoint x="625" y="75" />
            </Array>
          </mxGeometry>
        </mxCell>
        <mxCell id="qBQlF7NBc0J-nLH2HXVz-61" value="&lt;font color=&quot;#ff3399&quot;&gt;2. listen requestion&lt;/font&gt;" style="edgeLabel;html=1;align=center;verticalAlign=middle;resizable=0;points=[];fontStyle=1" vertex="1" connectable="0" parent="qBQlF7NBc0J-nLH2HXVz-47">
          <mxGeometry x="-0.225" y="-26" relative="1" as="geometry">
            <mxPoint as="offset" />
          </mxGeometry>
        </mxCell>
        <mxCell id="qBQlF7NBc0J-nLH2HXVz-56" style="edgeStyle=orthogonalEdgeStyle;curved=1;rounded=0;orthogonalLoop=1;jettySize=auto;html=1;exitX=1;exitY=0;exitDx=0;exitDy=0;entryX=0;entryY=0.3333333333333333;entryDx=0;entryDy=0;entryPerimeter=0;fillColor=#e1d5e7;strokeColor=#9673a6;strokeWidth=2;" edge="1" parent="1" source="fAShZ8duKGNs7Qphul_N-1">
          <mxGeometry relative="1" as="geometry">
            <mxPoint x="920" y="75" as="targetPoint" />
            <Array as="points">
              <mxPoint x="625" y="75" />
            </Array>
          </mxGeometry>
        </mxCell>
        <mxCell id="qBQlF7NBc0J-nLH2HXVz-68" style="edgeStyle=orthogonalEdgeStyle;curved=1;rounded=0;sketch=0;orthogonalLoop=1;jettySize=auto;html=1;exitX=0;exitY=0.5;exitDx=0;exitDy=0;shadow=0;strokeColor=#FF3399;strokeWidth=2;fontColor=#FF3399;" edge="1" parent="1" source="qBQlF7NBc0J-nLH2HXVz-65">
          <mxGeometry relative="1" as="geometry">
            <mxPoint x="50" y="60" as="targetPoint" />
          </mxGeometry>
        </mxCell>
        <mxCell id="qBQlF7NBc0J-nLH2HXVz-69" value="5. vote" style="edgeLabel;html=1;align=center;verticalAlign=middle;resizable=0;points=[];fontColor=#FF3399;fontStyle=1" vertex="1" connectable="0" parent="qBQlF7NBc0J-nLH2HXVz-68">
          <mxGeometry x="0.0053" y="-5" relative="1" as="geometry">
            <mxPoint y="1" as="offset" />
          </mxGeometry>
        </mxCell>
        <mxCell id="qBQlF7NBc0J-nLH2HXVz-65" value="Other Relayer" style="rounded=1;whiteSpace=wrap;html=1;" vertex="1" parent="1">
          <mxGeometry x="88.5" y="250" width="590" height="110" as="geometry" />
        </mxCell>
        <mxCell id="qBQlF7NBc0J-nLH2HXVz-67" value="" style="html=1;shadow=0;dashed=0;align=center;verticalAlign=middle;shape=mxgraph.arrows2.arrow;dy=0;dx=10;notch=0;rounded=1;labelBackgroundColor=none;strokeWidth=2;fontColor=#FF3399;fillColor=#FF3399;" vertex="1" parent="1">
          <mxGeometry x="-340" y="-520" width="100" height="30" as="geometry" />
        </mxCell>
        <mxCell id="qBQlF7NBc0J-nLH2HXVz-70" value="" style="verticalLabelPosition=bottom;verticalAlign=top;html=1;shape=mxgraph.flowchart.parallel_mode;pointerEvents=1;rounded=1;labelBackgroundColor=none;strokeWidth=4;fillColor=#FF3399;fontColor=#FF3399;strokeColor=#FF3399;" vertex="1" parent="1">
          <mxGeometry x="-450" y="-760" width="95" height="40" as="geometry" />
        </mxCell>
        <mxCell id="qBQlF7NBc0J-nLH2HXVz-73" value="" style="shape=actor;whiteSpace=wrap;html=1;rounded=1;labelBackgroundColor=none;strokeColor=#FF3399;strokeWidth=4;fillColor=#FF3399;fontColor=#FF3399;" vertex="1" parent="1">
          <mxGeometry x="1150" y="35" width="40" height="60" as="geometry" />
        </mxCell>
        <mxCell id="qBQlF7NBc0J-nLH2HXVz-74" value="" style="shape=actor;whiteSpace=wrap;html=1;rounded=1;labelBackgroundColor=none;strokeColor=#FF3399;strokeWidth=4;fillColor=#FF3399;fontColor=#FF3399;" vertex="1" parent="1">
          <mxGeometry x="1030" y="-140" width="40" height="60" as="geometry" />
        </mxCell>
      </root>
    </mxGraphModel>
  </diagram>
</mxfile>
